<svg xmlns="http://www.w3.org/2000/svg" viewBox="0 0 32 32" shape-rendering="crispEdges">
  <rect width="32" height="32" fill="#0a0a0a"/>
  <!-- Pixel moon -->
  <rect x="8" y="4" width="3" height="3" fill="#e8e8e8"/>
  <rect x="11" y="2" width="3" height="3" fill="#e8e8e8"/>
  <rect x="14" y="2" width="3" height="3" fill="#e8e8e8"/>
  <rect x="17" y="2" width="3" height="3" fill="#e8e8e8"/>
  <rect x="20" y="4" width="3" height="3" fill="#e8e8e8"/>
  <rect x="6" y="7" width="3" height="3" fill="#e8e8e8"/>
  <rect x="6" y="10" width="3" height="3" fill="#e8e8e8"/>
  <rect x="6" y="13" width="3" height="3" fill="#e8e8e8"/>
  <rect x="8" y="16" width="3" height="3" fill="#e8e8e8"/>
  <rect x="11" y="18" width="3" height="3" fill="#e8e8e8"/>
  <rect x="14" y="18" width="3" height="3" fill="#e8e8e8"/>
  <rect x="17" y="18" width="3" height="3" fill="#e8e8e8"/>
  <rect x="20" y="16" width="3" height="3" fill="#e8e8e8"/>
  <rect x="22" y="7" width="3" height="3" fill="#e8e8e8"/>
  <rect x="22" y="10" width="3" height="3" fill="#e8e8e8"/>
  <rect x="22" y="13" width="3" height="3" fill="#e8e8e8"/>
  <!-- ZZZ -->
  <rect x="24" y="5" width="6" height="1" fill="#666"/>
  <rect x="28" y="6" width="2" height="1" fill="#666"/>
  <rect x="26" y="7" width="2" height="1" fill="#666"/>
  <rect x="24" y="8" width="2" height="1" fill="#666"/>
  <rect x="24" y="9" width="6" height="1" fill="#666"/>
  <!-- Sound bars -->
  <rect x="4" y="24" width="2" height="4" fill="#555"/>
  <rect x="8" y="22" width="2" height="8" fill="#777"/>
  <rect x="12" y="23" width="2" height="6" fill="#555"/>
  <rect x="16" y="21" width="2" height="10" fill="#999"/>
  <rect x="20" y="23" width="2" height="6" fill="#555"/>
  <rect x="24" y="22" width="2" height="8" fill="#777"/>
  <rect x="28" y="24" width="2" height="4" fill="#555"/>
</svg>
